<svg width="925" height="911" viewBox="0 0 925 911" fill="none" xmlns="http://www.w3.org/2000/svg">
<path d="M411.29 2.13331C355.397 8.93331 304.882 24.2666 255.68 49.4666C185.617 85.3333 126.312 137.6 81.3082 203.333C38.6664 265.333 10.1947 340.267 1.9288 411.467C-0.432903 431.6 -0.564109 440 1.27277 440C4.02809 440 25.8082 419.733 28.0387 415.2C29.2196 412.667 30.794 406.133 31.4501 400.933C41.0281 332.933 77.7656 251.067 126.18 190.4C193.095 106.267 290.843 49.3333 396.202 33.2C414.57 30.2666 420.868 30 461.804 30C491.588 30 511.269 30.6666 519.535 31.7333C548.925 35.8666 594.322 48 621.875 59.0666C664.386 76.1333 710.439 104.533 743.24 133.867C775.517 162.8 790.605 178.8 809.368 204C852.403 261.867 884.286 338.667 890.978 400.8C893.208 421.867 892.683 420.933 907.772 435.2C915.251 442.267 922.205 448 923.254 448C924.96 448 925.222 446 924.435 433.067C921.811 389.867 915.644 357.867 902.13 317.733C882.187 258.533 848.992 202 807.4 155.867C744.946 86.5333 665.435 37.8666 575.953 14.1333C548.138 6.79998 503.79 -2.3365e-05 482.535 -2.3365e-05C473.875 -2.3365e-05 473.875 -2.3365e-05 472.957 3.99998C471.514 10.4 473.482 11.4666 488.439 12.4C545.251 16 606.918 32.4 658.613 57.7333C702.698 79.3333 741.797 107.467 778.535 144C834.297 199.333 871.428 260.933 894.914 337.333C903.18 364 911.577 411.2 910.265 423.733L909.871 428.133L904.361 423.867C899.375 420 898.719 418.8 897.932 412.133C896.357 398.267 890.715 368.667 886.91 353.867C874.708 306.8 855.421 263.867 827.212 220.667C811.992 197.333 801.233 183.6 782.077 163.6C755.442 135.733 733.269 116.933 701.911 95.8666C652.184 62.2666 596.29 40 534.886 29.3333C498.017 23.0666 434.645 22.4 398.17 28C290.187 44.5333 194.407 99.4666 124.212 184.8C90.8862 225.467 61.3649 279.2 43.9146 330.933C33.943 360.4 23.3153 408.533 25.4146 414.267C25.9394 415.6 25.9394 416.133 25.4146 415.733C25.021 415.2 22.2657 416.267 19.3791 418.133C16.4926 420 13.8685 421.2 13.3437 420.8C12.294 419.733 16.4926 391.6 20.56 373.333C43.1273 269.067 106.5 169.2 190.996 104.667C255.68 55.2 330.205 24.6666 408.666 15.3333C418.113 14.2666 428.347 13.2 431.627 13.0666C436.744 12.6666 437.531 12.2666 437.925 9.46664C438.187 7.86664 438.056 4.93331 437.663 3.19998C436.613 -0.66669 435.038 -0.66669 411.29 2.13331Z" fill="white"/>
<path d="M452.095 2.93337C450.914 4.53337 449.996 6.66671 449.996 7.60004C449.996 9.73337 453.67 13.3334 455.9 13.3334C458.524 13.3334 461.804 9.60004 461.804 6.66671C461.804 3.73337 458.524 3.99947e-05 455.9 3.99947e-05C454.85 3.99947e-05 453.145 1.33337 452.095 2.93337Z" fill="white"/>
<path d="M405.374 54.3957C398.442 60.1556 392.346 64.7802 391.954 64.811C391.561 64.8418 391.026 61.2731 390.693 56.8862C390.157 49.8405 389.824 48.9305 387.47 49.1155C384.984 49.3107 384.924 50.2515 386.481 70.7238C387.968 90.2655 388.23 91.9834 390.424 91.4099C392.225 90.8673 392.616 89.098 392.352 82.1647C391.955 68.2879 394.179 68.1132 409.962 80.1129C420.712 88.2285 428.905 92.1318 428.672 89.0742C428.581 87.8778 414.499 75.7446 405.852 69.336L400.699 65.5951L412.277 55.1908C418.685 49.4719 423.967 44.5102 423.946 44.2444C423.916 43.8455 422.588 43.6824 421.018 43.8057C419.317 43.9393 412.315 48.7687 405.374 54.3957Z" fill="white"/>
<path d="M505.693 42.0667C505.955 42.7334 509.891 54.7334 514.615 68.7334C519.207 82.8667 523.799 94.3334 524.586 94.3334C525.505 94.3334 528.654 91.1334 531.671 87.2667C534.689 83.5334 542.168 75.1334 548.203 68.6C558.437 57.8 560.405 54.3334 556.076 54.3334C555.157 54.3334 548.072 61 540.2 69C532.459 77.1334 526.029 83.6667 525.898 83.4C525.636 83.1334 523.93 78.2 521.962 72.3334C513.171 46.8667 510.547 41 507.792 41C506.349 41 505.43 41.5334 505.693 42.0667Z" fill="white"/>
<path d="M350.279 58.6668C348.443 59.3334 341.751 61.4668 335.453 63.3334C324.301 66.8001 320.889 69.3334 323.645 72.1334C324.563 73.0668 327.187 72.8001 331.648 71.2001C335.322 69.8668 338.602 69.0668 338.996 69.4668C339.389 69.7334 341.226 77.3334 343.063 86.0001C347.262 106.267 347.393 106.667 349.755 106.667C353.035 106.667 353.035 103.6 349.623 87.6001C346.081 70.6668 345.687 65.8668 347.655 64.6668C348.311 64.2668 351.46 63.4668 354.478 62.9334C358.283 62.2668 360.251 61.2001 360.514 59.6001C360.907 57.8668 360.12 57.3334 357.233 57.4668C355.265 57.4668 352.116 58.0001 350.279 58.6668Z" fill="white"/>
<path d="M288.613 80.4001C288.613 80.8001 290.712 85.4667 293.205 90.8001C299.634 104.533 299.634 113.067 293.336 119.467C289.532 123.333 287.957 124 282.971 124C274.574 124 269.719 119.467 263.422 105.733C258.436 94.9334 256.468 92.8001 255.024 96.5334C253.712 100 262.503 118.8 268.276 124.8C273.393 130.267 274.18 130.667 280.61 130.667C288.744 130.667 293.336 128.533 298.847 122.133C304.227 115.867 305.407 107.867 302.39 98.2667C299.11 87.7334 294.911 80.8001 291.5 80.2667C289.925 80.0001 288.613 80.1334 288.613 80.4001Z" fill="white"/>
<path d="M511.105 812.418C510.98 812.798 511.508 817.888 512.2 823.734C513.992 838.792 511.312 846.893 503.323 850.992C498.497 853.469 496.792 853.607 492.059 852.042C484.086 849.405 480.901 843.577 479.233 828.56C477.891 816.741 476.692 814.098 474.15 817.189C471.816 820.068 474.259 840.678 477.856 848.187C480.997 854.984 481.619 855.611 487.723 857.63C495.447 860.184 500.476 859.6 507.718 855.254C514.793 850.994 518.426 843.769 518.575 833.707C518.768 822.676 516.959 814.775 513.888 813.198C512.477 812.45 511.189 812.165 511.105 812.418Z" fill="white"/>
<path d="M585.588 63.5896C582.963 67.4563 573.91 87.5896 570.761 96.2563C569.449 100.256 569.449 101.723 570.63 102.923C572.861 105.19 573.779 103.856 580.733 87.9896C584.013 80.2563 588.212 71.3229 589.917 68.1229C591.754 64.9229 592.804 61.8563 592.41 61.1896C591.098 58.9229 588.08 59.9896 585.588 63.5896Z" fill="white"/>
<path d="M415.226 112.667C407.354 113.6 395.152 115.467 388.329 116.667C333.092 126.4 280.872 150.533 235.344 187.333C219.336 200.4 189.815 230.133 178.007 245.334C140.482 293.334 115.815 351.334 107.287 411.334C104.663 429.867 105.056 483.734 107.943 502.667C117.39 564.534 144.812 626.667 183.386 673.334C226.946 726.134 297.273 769.2 364.843 784.534C419.031 796.667 483.847 796.934 537.51 785.2C579.889 775.867 623.712 756.934 661.237 731.334C714.9 694.934 751.506 652.667 780.503 593.2C801.496 550.267 812.517 508.267 814.223 464.134C817.24 389.734 794.017 316.267 747.308 252C736.286 236.8 705.06 204.667 686.822 189.867C635.127 147.867 576.74 122.533 511.006 113.333C494.212 110.933 432.152 110.533 415.226 112.667ZM449.209 126.667C449.733 132.533 449.865 137.867 449.471 138.533C449.077 139.2 442.911 140.133 435.957 140.533C369.173 145.333 309.868 167.2 261.191 204.8C187.322 262 141.925 343.734 134.709 433.2L133.134 452.667H122.638H112.141L112.404 436C113.847 363.467 151.11 279.067 206.872 221.733C234.556 193.333 266.308 170 301.078 152.667C346.475 129.867 388.46 119.333 444.879 116.133C448.29 116 448.421 116.267 449.209 126.667ZM485.553 117.467C520.191 120.133 544.333 124.933 573.329 134.667C626.992 152.533 671.865 181.2 713.85 224.133C740.485 251.467 757.804 276.267 774.73 311.334C794.279 351.734 805.038 393.2 807.662 437.734L808.581 453.467L796.247 453.067L783.914 452.667L783.652 446.667C779.716 373.2 756.755 311.734 713.982 260C677.638 216.134 629.616 181.2 579.365 162C550.237 150.933 507.726 142.4 473.482 140.533L456.819 139.6L456.031 133.6C455.638 130.267 455.244 125.067 455.244 121.867V116H461.542C464.953 116 475.843 116.667 485.553 117.467ZM448.421 160.933L448.815 173.067L441.861 173.867C438.056 174.267 428.478 175.2 420.475 176.133C355.79 182.933 299.372 209.067 254.237 253.2C228.39 278.4 211.202 302.4 195.326 335.334C180.631 365.734 172.627 393.067 169.085 424C166.985 443.467 168.297 484.667 171.709 501.467C176.826 527.2 186.797 557.067 196.9 577.734C208.053 600.267 229.046 628.534 250.17 649.334C291.106 690 336.241 713.467 394.758 724.8C416.538 729.067 460.492 730.667 486.077 728.134C532.787 723.467 584.35 705.6 619.907 681.467C660.843 653.867 696.4 613.467 717.524 570.934C735.368 534.934 744.684 498 746.127 458C748.095 402 733.794 349.6 704.535 305.2C660.056 237.734 593.535 193.2 516.911 180C504.315 177.867 465.872 173.333 459.705 173.333C458.262 173.333 457.868 170.4 457.868 160.4V147.6L473.744 148.4C534.23 151.733 592.879 171.333 641.162 204.267C673.964 226.533 711.357 266.267 732.088 300.667C745.602 323.067 758.329 354 765.545 382.267C773.811 414.534 775.779 461.067 770.269 492.667C758.46 560.134 728.677 617.6 681.967 663.334C631.322 712.934 566.375 743.867 492.638 753.6C473.875 756 426.641 755.6 408.929 752.934C349.755 743.734 299.241 722.534 255.156 688.134C242.691 678.4 219.73 655.2 208.184 640.667C193.227 621.867 183.649 606.4 172.496 583.334C150.847 538.534 141.663 494.4 143.368 442.667C144.549 407.734 148.748 386 160.95 353.067C196.769 255.867 282.709 179.067 380.719 156.8C403.418 151.6 427.691 148.267 440.811 148.533L448.028 148.667L448.421 160.933ZM447.897 188.8C448.946 196.667 448.946 240.4 447.897 246.8C447.241 251.067 446.585 251.734 441.336 253.067C435.038 254.8 425.46 262.8 421.262 269.867C419.95 272.134 416.276 281.734 413.127 291.334C406.829 310.667 400.269 321.867 391.085 329.067C384.262 334.267 383.081 333.734 379.145 322.934C371.141 301.2 374.028 272.534 386.755 247.067C397.514 225.6 420.737 197.333 436.219 186.933C445.01 180.933 446.847 181.333 447.897 188.8ZM471.382 186.667C480.042 192.267 498.411 211.333 505.627 222.533C513.237 234 522.553 254 525.57 264.667C528.85 276.8 529.506 301.467 526.882 312C524.127 322.534 520.847 328.534 517.436 329.067C514.024 329.6 503.921 319.334 499.46 310.8C497.623 307.467 493.95 298 491.326 290C488.702 281.867 485.159 272.8 483.322 269.734C479.255 262.667 471.12 255.6 464.428 253.334L459.18 251.6V218C459.18 199.6 459.574 184 460.099 183.6C461.804 181.733 465.347 182.8 471.382 186.667ZM415.882 189.867C415.882 190.133 412.471 192.533 408.404 195.333C404.205 198.133 395.808 204.667 389.641 209.867C383.475 215.067 374.946 222.133 370.617 225.333C336.109 251.867 300.815 299.467 278.248 350.134C269.851 369.2 260.404 395.867 256.992 410.4C253.319 425.867 253.319 425.6 252.007 424.8C250.17 423.6 243.216 404.4 239.28 389.6C237.443 382.534 235.606 376.4 235.344 376.134C234.425 375.067 226.946 379.067 226.946 380.667C226.946 384.4 241.904 426.534 246.102 434.8C250.563 443.467 250.695 444 249.383 451.467C247.283 462.667 247.546 495.067 249.907 508.4C255.68 542.4 272.081 574.8 295.567 598.934C314.198 618.134 334.929 632.134 370.223 649.2C394.758 660.934 405.124 667.734 414.046 677.734C421.655 686.4 431.233 704 432.414 712.134L433.202 716.8L428.216 716.4C357.102 709.6 297.797 681.6 253.319 633.867C210.677 588.134 187.585 535.867 182.205 473.067C177.088 412 195.851 346.934 233.375 296C242.297 283.734 268.014 256.667 278.773 248C311.968 221.334 350.673 202.667 393.577 192.667C406.042 189.867 415.882 188.533 415.882 189.867ZM519.535 193.467C527.145 195.067 541.84 199.067 552.336 202.667C592.092 215.867 623.712 235.734 656.251 267.867C698.106 308.934 721.985 356.134 730.251 413.334C733.269 434.934 732.35 477.467 728.283 497.867C720.148 538.267 702.042 577.867 676.326 611.334C667.01 623.467 642.212 648.4 630.404 657.467C600.489 680.8 565.326 697.867 528.063 707.334C511.925 711.467 485.815 716 478.074 716C474.663 716 474.663 715.734 475.45 710.534C477.287 699.2 488.308 682.267 500.904 671.6C507.858 665.6 517.042 660.667 556.535 641.467C615.315 613.067 652.053 565.734 659.794 508.667C661.631 495.467 661.631 472.4 659.794 456.534C658.35 444.4 658.35 443.867 661.499 438.4C663.336 435.2 669.634 422.934 675.67 410.934L686.56 389.2L683.542 386C681.836 384.134 679.737 382.667 678.95 382.667C678.162 382.667 676.063 386.134 674.357 390.267C669.372 402.667 657.301 427.334 655.989 427.734C655.333 428 654.414 426.534 654.021 424.4C646.935 389.6 633.159 351.467 617.021 322.4C594.847 282.267 570.705 254.667 526.095 217.867C517.829 211.067 508.12 203.067 504.577 200C501.035 197.067 496.574 193.333 494.737 191.867L491.326 189.2L498.542 190C502.478 190.4 511.925 192 519.535 193.467ZM538.691 245.6C548.269 255.6 551.943 260.934 550.368 262.4C549.187 263.6 524.783 237.733 524.783 235.2C524.783 232 528.326 234.667 538.691 245.6ZM377.308 244.4C374.946 248.934 372.716 253.6 372.322 254.667C371.929 255.734 371.273 256.267 370.748 255.734C369.698 254.8 373.897 245.734 378.095 239.6C382.163 233.733 381.9 235.333 377.308 244.4ZM364.712 246.667C364.712 247.334 361.826 252.267 358.283 257.6C335.191 292.4 325.613 319.467 324.432 353.334C323.382 383.067 329.156 427.734 337.159 451.334C341.095 462.934 340.833 463.467 333.223 459.2C324.301 454.267 317.085 446 313.804 437.067C310.524 428.134 305.145 401.2 303.046 383.334C302.127 376 301.209 369.6 300.815 368.934C300.553 368.4 299.109 368 297.666 368C295.567 368 295.173 368.934 295.173 374.534C295.173 381.6 300.553 416.134 303.57 428C307.638 444 311.049 451.067 318.659 458.667C322.726 462.667 330.73 468.667 336.634 471.867L347.131 477.867L357.758 498.934C363.531 510.534 367.599 520 366.812 520C362.219 520 339.127 512.534 329.68 508C314.985 501.067 303.833 492.8 288.088 477.334C270.113 459.734 261.06 448 261.06 442.4C261.06 437.067 268.539 406.134 273.524 391.334C278.379 376.667 291.5 345.734 298.978 331.334C313.542 303.2 331.517 277.734 351.46 256.534C361.432 246 364.712 243.6 364.712 246.667ZM448.684 394.667C448.684 477.734 448.159 529.334 447.503 529.334C445.535 529.334 433.858 518.8 431.365 514.8C430.184 512.934 427.691 504.667 425.854 496.667C421.524 477.2 419.556 472 412.602 461.334C405.124 450 396.726 442.134 378.358 429.334C361.301 417.467 349.099 405.334 344.244 395.2C340.702 387.734 340.702 387.734 343.063 383.2C346.606 376.4 363.4 360.667 379.145 349.334C405.124 330.4 412.34 320.8 421.131 292.934C425.46 279.6 427.56 275.067 431.627 270.267C436.482 264.667 443.436 260.134 447.109 260C448.29 260 448.684 287.867 448.684 394.667ZM467.053 264.267C474.006 269.2 479.386 278.534 485.553 296.8C494.343 323.2 499.329 329.6 526.751 349.467C548.662 365.334 564.145 382.4 564.145 390.667C564.145 399.334 549.975 415.6 525.045 435.867C503.003 453.867 492.244 470.267 484.241 498.667C480.304 512.4 480.042 512.8 471.645 520.934C466.921 525.6 462.198 529.334 461.148 529.334C459.443 529.334 459.18 513.2 459.18 395.334C459.18 248.534 458.524 258.534 467.053 264.267ZM544.595 272.934C564.276 291.6 573.329 317.6 573.329 355.2C573.329 381.334 573.723 380.934 560.602 366.667C554.436 360 544.464 350.934 538.297 346.4C530.556 340.667 527.407 337.6 527.932 336.134C528.194 334.934 530.162 329.467 532.131 324C535.411 315.067 535.804 312.134 535.804 296.667C535.936 287.067 535.411 276.534 534.886 272.934C533.443 264.534 535.804 264.534 544.595 272.934ZM366.287 287.334C365.631 309.067 367.205 321.2 372.06 331.867C373.765 335.734 375.209 339.467 375.209 340.134C375.209 340.667 369.698 345.334 363.007 350.4C356.184 355.467 347.131 363.467 342.67 368.134L334.535 376.667V361.734C334.535 341.867 336.503 328.667 341.751 312.4C347.524 294.934 354.347 281.334 361.038 273.867C363.925 270.667 366.418 268 366.549 268C366.68 268 366.549 276.667 366.287 287.334ZM568.606 270.8C578.315 278.534 599.045 309.734 610.854 334.267C630.797 376 640.638 404.4 646.804 437.334L648.116 444.134L639.85 454.4C618.595 481.2 596.946 500 575.56 510C565.457 514.667 542.102 522 540.921 520.934C540.528 520.534 542.365 516.667 544.858 512.4C547.35 508.134 551.549 500.4 554.042 495.334C557.584 488.267 561.127 483.867 568.606 476.934C584.875 462 599.964 436.8 607.967 410.934C613.216 394.134 614.921 363.867 611.116 358.934C607.836 354.934 606.524 360.134 605.868 377.734C605.343 393.467 604.687 396.8 600.489 409.6C594.847 426.534 589.861 437.067 580.545 451.334C574.51 460.534 562.833 474 562.833 471.734C562.833 471.334 564.538 467.067 566.769 462.267C574.116 445.734 578.315 426.267 581.857 391.734C586.843 343.067 583.432 316.134 568.081 281.6C565.194 275.067 562.833 269.334 562.833 268.8C562.833 267.2 565.194 268 568.606 270.8ZM346.868 412.4C350.28 416.667 359.202 424.667 366.549 430.134C394.758 451.2 404.336 460.667 411.421 474.934C414.833 481.734 418.507 495.6 418.507 501.734V505.467L407.748 499.334C401.712 496 388.592 488.934 378.489 483.867C352.379 470.4 352.379 470.4 347.787 454.934C344.113 443.067 335.716 403.867 335.978 399.734C335.978 398.8 337.028 399.467 338.209 401.334C339.39 403.067 343.326 408.134 346.868 412.4ZM568.081 423.6C563.095 448.267 552.205 478.667 548.138 478.667C547.219 478.667 542.889 480.8 538.56 483.467C519.797 495.067 494.081 508 492.769 506.667C490.538 504.4 493.95 491.2 499.985 478.934C506.021 466.4 516.78 453.867 532.655 440.934C547.088 429.2 558.372 417.734 564.538 408.667L570.049 400.667L570.443 404.934C570.705 407.334 569.655 415.734 568.081 423.6ZM269.851 471.334C298.322 504.934 326.925 522.8 361.432 528.534C371.929 530.4 375.077 531.467 377.177 533.867C378.62 535.6 386.886 545.867 395.546 556.8C404.205 567.6 419.687 585.334 430.053 596.134C440.287 606.934 448.684 616.267 448.684 617.067C448.684 617.867 446.847 620.8 444.485 623.467C440.418 628.134 440.024 628.267 433.595 627.6C429.921 627.2 421.524 624.8 414.833 622.267C390.822 613.2 369.96 597.2 356.971 578.134C350.017 567.867 339.783 547.334 339.783 543.6C339.783 540.267 336.634 538.534 334.01 540.4C331.911 541.867 332.042 542.534 334.273 549.334C341.226 569.6 350.017 584.8 363.007 598.8C381.9 619.067 397.514 627.867 435.957 639.334L447.372 642.8V681.067C447.372 702 446.847 718.667 446.322 717.867C445.666 717.2 443.567 712 441.599 706.4C437.138 693.867 425.067 674.934 416.145 666.4C406.698 657.334 397.251 651.467 366.287 635.467C319.709 611.067 298.847 592.934 279.429 559.867C266.177 537.2 260.01 513.734 258.829 481.467C257.911 456.267 257.386 456.667 269.851 471.334ZM134.315 472.267C136.677 500.934 143.5 533.334 152.159 557.467C158.195 574.534 173.152 604.934 182.993 620C212.251 665.067 252.794 702.534 297.666 725.867C341.882 748.8 380.982 759.2 438.581 763.467L450.127 764.267L449.209 775.734C448.684 782.134 448.159 787.6 447.897 787.867C446.847 789.067 403.155 784.934 386.23 782C349.624 775.734 328.106 768.667 293.205 751.334C222.485 716.267 168.166 657.6 137.071 582.667C122.638 548.134 111.485 498.8 111.485 469.867V461.334H122.507H133.397L134.315 472.267ZM650.216 464.934C651.659 470.667 649.691 502.8 646.935 516.934C639.457 556.134 617.939 588.134 581.07 614.934C574.51 619.734 556.797 629.6 537.248 639.334C513.106 651.467 502.216 657.734 495.918 663.067C482.141 674.534 469.677 693.467 464.428 710.667C459.836 725.467 459.18 721.067 459.443 680.534L459.836 642.134L473.613 639.867C481.223 638.667 490.014 636.934 493.294 636C501.822 633.734 519.272 625.2 528.194 618.934C550.368 603.734 568.999 573.867 573.46 546.534C575.166 535.734 574.641 532 571.361 532C568.999 532 569.262 531.334 565.588 547.2C560.865 567.734 551.024 585.6 535.673 600.934C520.322 616.267 496.443 627.734 477.549 628.934C466.265 629.6 462.592 628.134 458.918 621.867L456.425 617.6L472.432 601.867C489.489 584.934 509.301 562.667 523.865 544L532.655 532.534L545.514 530.134C579.365 523.734 602.457 509.734 631.847 478C640.244 468.8 647.723 461.334 648.248 461.334C648.904 461.334 649.822 462.934 650.216 464.934ZM807.269 463.067C807.531 464 807.269 471.067 806.613 478.667C802.808 522.667 785.489 574.4 759.904 618.267C702.042 717.334 587.631 784.4 472.301 786.934L457.212 787.334L456.819 775.734L456.425 764.267L469.283 763.334C538.035 758.667 589.205 741.867 641.162 706.8C697.45 669.067 737.73 619.334 761.478 558.4C772.237 530.934 779.584 500.534 781.29 475.867C781.815 469.734 782.34 463.867 782.733 462.934C783.389 460.667 806.35 460.667 807.269 463.067ZM377.833 491.2C401.843 503.867 416.014 513.734 413.652 516.134C413.127 516.667 406.304 518.534 398.432 520C387.411 522.267 383.999 522.667 382.425 521.334C378.226 517.867 360.776 488.134 360.776 484.4C360.776 482.4 363.269 483.334 377.833 491.2ZM544.333 492.934C531.999 513.6 527.276 521.2 525.439 522.667C522.29 525.334 510.088 523.734 504.577 519.867C501.953 518.134 499.854 516.4 499.854 516C499.854 515.6 503.003 513.467 506.677 511.334C525.177 500.534 546.432 488.267 546.826 488.134C547.088 488 545.907 490.267 544.333 492.934ZM492.113 525.467C496.705 528.8 509.038 533.334 513.368 533.334C515.074 533.334 516.78 533.734 517.304 534.134C518.879 535.734 463.379 601.334 460.361 601.334C459.705 601.334 459.18 589.734 459.18 574.934C459.18 551.334 459.443 548.267 461.673 544.8C464.822 540 484.109 522.934 486.471 522.8C487.521 522.667 490.014 523.867 492.113 525.467ZM433.464 531.467C447.503 543.734 447.372 543.067 447.372 575.2V602.8L439.762 594.4C414.702 566.934 387.28 532.267 389.904 531.334C390.822 531.067 396.333 530.267 402.106 529.467C407.879 528.8 414.964 527.334 417.851 526.267C420.737 525.2 423.492 524.267 424.017 524.134C424.411 524.134 428.741 527.334 433.464 531.467Z" fill="white"/>
<path d="M226.29 334C222.354 337.867 222.223 338.8 225.503 342.8C227.996 345.867 228.258 345.867 231.801 344C236.393 341.467 237.574 335.067 234.032 332.4C230.751 330 229.964 330.133 226.29 334Z" fill="white"/>
<path d="M220.649 447.467C216.975 450 216.844 455.067 220.386 458.667C223.666 462 227.209 462.133 229.964 458.933C233.113 455.467 232.72 449.867 229.308 447.467C227.734 446.267 225.766 445.333 224.978 445.333C224.191 445.333 222.223 446.267 220.649 447.467Z" fill="white"/>
<path d="M671.996 332.133C669.503 333.067 668.978 334.133 669.372 338.133C669.897 344.267 672.783 346.4 677.9 344.533C680.524 343.6 681.705 342.267 681.967 339.6C682.755 333.333 678.031 329.867 671.996 332.133Z" fill="white"/>
<path d="M676.457 448.8C673.439 451.733 673.833 458.267 676.851 460C680.524 461.867 684.329 461.6 686.691 459.2C691.152 454.667 687.872 446.667 681.574 446.667C679.868 446.667 677.507 447.6 676.457 448.8Z" fill="white"/>
<path d="M216.45 123.6C211.333 127.2 196.113 140.267 195.719 141.6C195.195 142.8 200.049 151.6 207.266 162.667C209.89 166.667 212.514 171.6 213.039 173.6C214.351 179.2 217.237 178.267 228.521 168.533C240.461 158.4 242.953 155.067 242.953 148.8C242.953 142.533 240.592 138.8 235.344 136.533C232.457 135.333 230.883 133.733 230.883 132.133C230.883 128.667 224.716 121.333 221.829 121.333C220.648 121.333 218.156 122.4 216.45 123.6ZM224.585 130.933L227.471 133.867L218.418 142.267C213.432 146.933 208.84 150.667 208.184 150.667C206.478 150.667 203.461 146.4 203.329 144C203.198 141.733 217.5 128.133 220.124 128C220.911 128 223.01 129.333 224.585 130.933ZM234.556 144.267C238.23 148 236.393 152.933 227.996 160.533C223.535 164.667 219.599 168 219.074 168C217.893 168 212.251 157.467 212.776 156C213.563 153.733 228.521 142.667 230.751 142.667C231.932 142.667 233.638 143.333 234.556 144.267Z" fill="white"/>
<path d="M630.705 82.7329C622.177 87.1329 616.01 97.5329 616.01 107.266C616.141 115 625.719 128.6 631.23 128.6C634.117 128.6 633.461 127.4 627.819 121.133C623.095 115.8 622.571 114.733 622.571 108.2C622.571 99.2663 626.244 92.9996 633.592 89.3996C638.315 87.1329 639.234 86.9996 644.088 88.7329C647.5 89.9329 650.78 92.5996 653.535 96.1996L657.734 101.666L659.439 98.4663C660.883 95.5329 660.751 94.8663 656.553 90.4663C648.418 81.7996 638.446 78.7329 630.705 82.7329Z" fill="white"/>
<path d="M46.1451 428.8C39.5848 432.133 36.3047 438 35.6486 446.8C33.943 470.4 60.0529 479.733 73.0422 460.133C79.2089 450.933 76.3224 437.467 66.6132 430.267C61.8898 426.667 51.6557 426 46.1451 428.8ZM64.5139 438.533C68.1876 441.867 68.8437 443.333 68.8437 448.533C68.8437 461.467 54.6734 467.733 45.7515 458.8C40.5032 453.467 40.372 444.8 45.3578 438.8C48.2444 435.333 49.6876 434.667 54.5422 434.667C59.0032 434.667 61.2337 435.467 64.5139 438.533Z" fill="white"/>
<path d="M852.797 431.067C846.237 434.533 840.989 443.067 840.989 449.867C841.12 456.8 845.581 464.8 851.485 468.8C872.478 482.933 894.127 454.267 876.676 435.6C869.067 427.467 861.981 426.133 852.797 431.067ZM871.297 439.467C875.496 443.333 876.939 451.2 874.315 456.8C867.754 470.933 848.336 466 848.336 450.133C848.336 437.733 862.375 431.333 871.297 439.467Z" fill="white"/>
<path d="M920.237 461.6C919.056 464 914.989 469.867 911.184 474.667C907.379 479.467 901.606 487.2 898.194 491.867C892.552 499.733 892.159 500.8 892.159 508.533C892.159 533.733 873.003 595.467 852.666 636C831.148 678.8 809.499 709.467 776.304 743.867C716.999 805.2 645.492 846.8 563.751 867.333C525.177 876.933 499.067 880 453.276 880C407.223 880 378.751 876.667 340.439 866.667C257.649 845.067 179.844 795.067 125 728C88.5245 683.467 60.3153 630.667 44.0458 576.667C38.5352 558.4 30.9252 521.067 29.0884 503.6C28.1699 495.333 27.1203 491.067 25.4146 489.067C21.216 484.267 3.76569 470.667 1.7976 470.667C-0.432891 470.667 -0.564096 479.333 1.27278 501.333C9.53873 593.2 43.2586 673.2 105.581 748.667C145.993 797.6 205.429 842.933 264.602 870C286.12 879.867 326.663 893.467 349.624 898.533C369.304 902.8 400.531 907.333 421.393 908.8L434.12 909.6L434.907 906.267C436.744 899.333 435.563 898.133 426.379 897.067C421.655 896.533 409.322 895.2 398.826 894C287.039 881.867 184.698 826.133 112.142 738C58.0848 672.267 22.9217 590.933 14.3933 511.333C12.1628 489.6 12.0316 488 12.6877 488C13.0813 488 15.3118 488.933 17.8047 490.133C22.5281 492.4 22.9217 493.467 24.2338 506C27.3827 536.4 39.8472 584.4 53.099 616.667C86.294 698 140.482 765.467 210.677 813.067C264.865 849.733 326.531 873.333 391.872 882.267C416.538 885.6 486.733 885.6 512.319 882.267C613.478 868.8 706.24 822.667 776.698 750.8C825.244 701.2 860.538 643.6 880.35 582C887.829 558.667 894.127 532.533 896.095 517.333C897.932 502.4 898.85 500.267 906.198 492.133L911.708 486L911.84 490.267C911.84 498.933 906.329 532.533 901.868 550.8C870.379 678 781.421 788.667 662.549 848.133C604.556 877.2 550.762 891.733 483.847 896.667L472.301 897.6V904.133V910.8L476.631 910.133C478.861 909.733 485.815 909.067 491.982 908.667C579.102 902.267 662.155 871.333 734.974 818.4C769.744 793.2 806.875 756.8 834.035 721.333C842.301 710.533 862.113 680.267 870.247 666C885.074 639.733 903.049 596 911.184 565.733C919.843 533.733 924.96 498.667 924.96 470.267C924.96 456.533 923.779 454.4 920.237 461.6Z" fill="white"/>
<path d="M449.471 898.133C445.273 902.4 448.159 910.667 453.932 910.667C457.081 910.667 460.492 907.2 460.492 903.867C460.492 900.933 456.031 896 453.407 896C452.358 896 450.521 896.933 449.471 898.133Z" fill="white"/>
<path d="M460.775 43.0087C445.892 43.1626 444.753 43.5183 444.64 47.5521C444.395 61.5602 444.3 79.6446 444.336 82.7571C444.439 86.2858 444.923 86.6344 448.758 86.3105C451.212 86.168 457.963 86.1819 463.883 86.3309C472.103 86.4478 474.885 85.9532 475.425 84.2849C476.119 82.5063 475.262 81.9621 470.502 81.3256C467.343 80.8136 461.862 80.4653 458.07 80.526C454.431 80.4764 450.988 80.0533 450.525 79.5731C450.216 78.9827 450.006 76.1121 450.212 73.1739L450.67 67.8452L457.507 67.3326C461.32 67.1403 466.624 66.9195 469.473 66.841C473.244 66.912 474.578 66.1827 474.898 64.2084C475.367 61.3129 476.288 61.4622 458.556 61.6945C454.106 61.6485 450.357 61.446 450.026 60.9871C449.805 60.6812 449.617 57.679 449.866 54.4776C450.164 47.6372 449.157 48.0143 467.11 48.0879C475.747 48.1372 477.565 47.7565 477.885 45.7823C478.354 42.8868 478.091 42.8441 460.775 43.0087Z" fill="white"/>
<path d="M684.333 108.336C684.867 109.137 683.267 113.01 681 117.017C678.733 121.024 677 124.898 677.267 125.565C677.933 127.302 703.667 151.076 705 151.076C705.533 151.076 708.6 147.203 711.667 142.528C715.267 136.785 717.8 134.114 719.133 134.648C720.2 135.049 721 135.85 721 136.518C721 137.186 716.733 144.398 711.533 152.679C706.2 160.96 700.467 170.31 698.467 173.382C694.867 179.392 693 180.327 690.6 177.389C689.4 176.053 689.533 174.851 690.867 172.981C691.8 171.645 694.467 167.104 696.867 162.964L701 155.484L686.867 142.929L672.6 130.507L670.067 133.846C668.6 135.583 666.2 139.189 664.6 141.727C661.4 146.802 657 148.672 657 145.066C657 142.528 680.6 107 682.333 107C683 107 683.933 107.668 684.333 108.336Z" fill="white"/>
<path d="M322.004 815.514C315.111 833.037 314.135 836.717 315.846 838.187C319.118 841.016 320.6 839.549 323 830.896C324.339 826.208 327.9 816.549 330.954 809.408C335.076 799.924 336.03 796.113 334.818 795.235C333.909 794.577 332.504 794.138 331.599 794.291C330.693 794.443 326.441 803.949 322.004 815.514Z" fill="white"/>
<path d="M340.443 791.81C328.58 794.562 322.602 806.695 327.64 818.243C331.101 826.468 338.249 829.992 346.857 827.945C352.085 826.658 355.547 823.848 358.273 818.98C361.069 813.931 361.303 809.13 358.829 803.373C355.207 794.773 347.788 790.102 340.443 791.81ZM353.574 801.839C356.112 805.33 356.752 810.785 355.057 815.12C352.496 821.406 343.237 825.905 337.357 823.605C331.565 821.34 328.387 812.393 331 805.711C335.414 794.424 346.621 792.561 353.574 801.839Z" fill="white"/>
<path d="M414.758 815.413C413.75 816.969 408.045 824.739 402.127 832.873C396.08 840.979 389.921 849.606 388.46 852.019C385.908 856.378 385.851 856.639 388.288 857.165C390.212 857.581 392.329 855.856 396.374 850.182L401.895 842.644L410.713 843.458C421.07 844.604 422.34 845.56 425.039 854.191C427.134 860.646 431.961 865.645 432.749 861.996C432.974 860.953 430.729 851.465 427.882 841.028C420.078 813.152 418.389 809.786 414.758 815.413ZM418.84 830.072C419.959 833.588 420.694 837.02 420.525 837.802C420.385 838.454 417.01 838.543 413.134 837.842L405.896 836.552L408.821 832.955C410.297 831.091 412.54 828.165 413.575 826.479C414.611 824.793 415.818 823.554 416.074 823.609C416.459 823.692 417.692 826.687 418.84 830.072Z" fill="white"/>
<path d="M558.679 808.312C560.302 814.091 563.63 825.258 565.804 832.92C568.079 840.739 570.313 847.461 570.773 847.828C573.626 847.61 576.071 846.924 581.81 845.315C586.39 844.031 591.016 842.152 598.719 839.992C604.496 838.373 601.896 839.164 603.805 838.566C609.312 835.984 600.547 834.355 592.438 835.065C584.465 836.262 579.921 838.575 577.032 839.385L573.717 840.314L569.222 824.775C563.122 803.645 561.257 799.041 558.172 798.406C555.731 797.904 555.725 798.583 558.679 808.312Z" fill="white"/>
</svg>
