<svg width="68" height="68" viewBox="0 0 68 68" fill="none" xmlns="http://www.w3.org/2000/svg">
<path d="M66.358 49.0053C66.358 49.0053 57.9007 72.6792 28.7845 67.168C28.3263 67.0795 27.8869 66.9142 27.4419 66.7745C27.3378 66.7429 27.2327 66.7083 27.1287 66.6774C26.6915 66.5362 26.2588 66.3915 25.8287 66.2358C25.7794 66.218 25.7325 66.2013 25.6826 66.1829C25.2908 66.0399 24.9012 65.8881 24.5166 65.7348C24.4158 65.694 24.3156 65.6544 24.2154 65.6118C23.801 65.4419 23.3888 65.2643 22.9809 65.0788C22.9057 65.0444 22.8332 65.0099 22.7568 64.9749C22.3998 64.8101 22.0473 64.6394 21.6977 64.4659C21.6069 64.4181 21.5157 64.3739 21.4242 64.3291C21.3745 64.3033 21.3208 64.2775 21.2699 64.2511C21.0442 64.134 20.8238 64.0123 20.6015 63.8914C20.4299 63.7995 20.2556 63.71 20.0851 63.6151C19.7703 63.4371 19.4598 63.2561 19.151 63.0712C19.0364 63.0034 18.9207 62.9379 18.8072 62.8695C18.3878 62.6134 17.9727 62.3474 17.5638 62.0784C17.4482 62.0015 17.3337 61.92 17.2197 61.8406C16.953 61.6614 16.6862 61.4821 16.425 61.2949C16.3973 61.2753 16.3708 61.2547 16.3437 61.2346C16.2424 61.1633 16.1462 61.0904 16.0455 61.0145C15.7699 60.8158 15.4971 60.6124 15.2271 60.4056C15.0965 60.3034 14.9664 60.2007 14.8369 60.0977C14.5923 59.9041 14.3489 59.7059 14.1075 59.506C13.9875 59.4061 13.8657 59.3073 13.7457 59.2062C13.4513 58.9546 13.1579 58.6983 12.8707 58.4399C12.8164 58.3906 12.759 58.3422 12.7036 58.2906C12.698 58.2882 12.6942 58.2836 12.688 58.2784C12.3621 57.982 12.0422 57.6781 11.7251 57.368C11.6294 57.2772 11.5342 57.1801 11.4379 57.0848C11.2011 56.8486 10.9665 56.6107 10.7357 56.3696C10.6399 56.2719 10.5453 56.1731 10.4535 56.0742C10.1553 55.756 9.86077 55.4373 9.57307 55.1114C9.56256 55.0967 9.55205 55.088 9.5394 55.0736C9.53435 55.0679 9.52716 55.0603 9.52224 55.054C9.22788 54.7174 8.93898 54.3733 8.6562 54.0281C8.57702 53.931 8.49745 53.8316 8.41933 53.7334C8.20855 53.4697 8.00095 53.2067 7.79735 52.9401C7.71272 52.8292 7.62808 52.7173 7.54451 52.6059C7.31603 52.2996 7.09021 51.9912 6.87157 51.6775C6.83058 51.6189 6.78693 51.5614 6.74754 51.504C6.73916 51.4943 6.73211 51.4838 6.72652 51.4741C6.47315 51.1104 6.22856 50.74 5.98837 50.369C5.91371 50.2551 5.84345 50.138 5.77146 50.0207C5.59766 49.7462 5.4272 49.4715 5.26232 49.1936C5.17609 49.0512 5.09412 48.9082 5.01108 48.765C4.86111 48.5054 4.71446 48.2457 4.57221 47.9838C4.4909 47.8356 4.41066 47.6908 4.33201 47.5386C4.28823 47.4582 4.24072 47.3753 4.19814 47.2911C4.12335 47.1507 4.05589 47.0045 3.98283 46.8614C3.86998 46.6368 3.75541 46.411 3.64642 46.1824C-0.952162 36.6383 -1.70256 24.9523 4.31817 15.9697L9.01749 9.78294C3.71549 20.4201 6.09842 33.3729 12.7313 42.7634C12.9708 43.1053 13.2161 43.4424 13.4666 43.7795C13.5442 43.8812 13.6221 43.9835 13.6996 44.0812C13.9082 44.3569 14.1212 44.6291 14.3365 44.8986C14.4141 44.9934 14.4898 45.0864 14.569 45.184C14.8568 45.5368 15.1512 45.8871 15.4534 46.2288C15.4678 46.2454 15.4816 46.2605 15.4955 46.2765C15.781 46.6 16.0721 46.9192 16.3682 47.2342C16.46 47.3306 16.5535 47.426 16.6471 47.5226C16.8795 47.7689 17.1169 48.008 17.3582 48.2457C17.4495 48.3399 17.5413 48.4307 17.6361 48.5243C17.962 48.8391 18.2906 49.1521 18.6255 49.4578C18.6603 49.4895 18.6963 49.5186 18.7283 49.5479C19.0383 49.8276 19.352 50.1 19.6697 50.3712C19.7804 50.4648 19.8932 50.5583 20.0061 50.6514C20.2556 50.8599 20.508 51.0628 20.7621 51.2643C20.8833 51.3609 21.0077 51.4591 21.1335 51.5555C21.4096 51.7681 21.6885 51.9772 21.9702 52.184C22.0659 52.2511 22.1589 52.3242 22.2558 52.3919C22.547 52.601 22.8436 52.8044 23.1413 53.0031C23.2531 53.0802 23.3638 53.1606 23.4766 53.2353C23.8873 53.5052 24.3023 53.7706 24.7218 54.0268C24.8297 54.0912 24.9376 54.1514 25.0438 54.2136C25.3604 54.4037 25.6775 54.5908 26.0006 54.7701C26.1755 54.8711 26.3554 54.9625 26.5324 55.0596C26.7969 55.201 27.0615 55.3446 27.3292 55.4801C27.4305 55.5318 27.5289 55.5801 27.6281 55.6289C27.9695 55.7995 28.3121 55.9639 28.6585 56.1269C28.7404 56.1637 28.82 56.2021 28.9025 56.2389C29.306 56.4222 29.7137 56.598 30.1249 56.7661C30.2306 56.8098 30.3364 56.8518 30.4426 56.8956C30.8166 57.046 31.1935 57.192 31.5747 57.3315C31.634 57.3533 31.6932 57.3757 31.7507 57.3975C32.1757 57.5493 32.6034 57.694 33.0345 57.8307C33.1446 57.8664 33.2548 57.9009 33.3676 57.9353C33.8092 58.0708 34.248 58.2173 34.7007 58.3237C46.6471 61.1459 59.2549 58.6114 66.358 49.0053ZM24.2112 33.8284C24.8642 34.7987 25.5869 35.9537 26.4529 36.7335C26.7662 37.0924 27.0949 37.4421 27.4297 37.7862C27.5138 37.8757 27.6007 37.9619 27.6876 38.0498C28.0119 38.3773 28.3439 38.6995 28.6848 39.0125C28.6992 39.0235 28.712 39.0385 28.7258 39.0489C28.7297 39.0534 28.733 39.0545 28.7358 39.0591C29.1144 39.4026 29.5051 39.7341 29.9012 40.0597C29.9893 40.1299 30.0766 40.2028 30.1658 40.2741C30.5637 40.5906 30.9694 40.9019 31.3855 41.1982C31.3983 41.2073 31.4081 41.2167 31.4209 41.2258C31.604 41.3579 31.7911 41.4808 31.9765 41.6072C32.0662 41.667 32.1508 41.7313 32.2404 41.7876C32.5381 41.9858 32.8387 42.1783 33.1446 42.3632C33.1878 42.3908 33.2299 42.4138 33.2725 42.4396C33.5353 42.5971 33.8037 42.7528 34.0716 42.9032C34.1645 42.9572 34.2597 43.0054 34.3549 43.0571C34.5397 43.1571 34.7256 43.2598 34.9138 43.3569C34.942 43.3708 34.9714 43.3844 34.9986 43.3966C35.3821 43.5925 35.7688 43.782 36.1645 43.96C36.2486 43.9991 36.3361 44.0335 36.4219 44.0704C36.738 44.2094 37.0567 44.3456 37.3771 44.4731C37.5131 44.5265 37.6511 44.5776 37.786 44.6287C38.0776 44.7413 38.3693 44.8437 38.6636 44.9459C38.7971 44.9899 38.9277 45.0354 39.061 45.0779C39.4794 45.2123 39.8932 45.3835 40.3298 45.4582C62.8103 49.3247 68 31.358 68 31.358C63.3212 38.352 54.2612 41.689 44.593 39.0845C44.1641 38.9672 43.7409 38.8392 43.3208 38.7019C43.1912 38.6616 43.065 38.618 42.9371 38.5737C42.6384 38.4731 42.3411 38.3664 42.0463 38.2549C41.9118 38.2038 41.7769 38.1527 41.6445 38.0998C41.3218 37.971 41.0025 37.8379 40.6866 37.6989C40.5997 37.6598 40.5128 37.6253 40.4282 37.5851C40.0315 37.4057 39.6408 37.2172 39.2555 37.0196C39.0569 36.9189 38.8626 36.8125 38.6667 36.7082C38.5537 36.6479 38.4403 36.5874 38.3275 36.527C38.0773 36.386 37.8283 36.2397 37.5831 36.0913C37.5249 36.0565 37.4641 36.0235 37.4049 35.987C37.1011 35.8021 36.8012 35.6116 36.504 35.416C36.4126 35.3555 36.3241 35.2896 36.2328 35.2273C36.0363 35.0955 35.841 34.962 35.6484 34.8265C35.2345 34.53 34.8316 34.2188 34.4337 33.904C34.3419 33.829 34.2506 33.7558 34.1597 33.6808C29.9285 30.2121 26.5745 25.4726 24.9785 20.0982C23.3077 14.5243 23.6681 8.26763 26.5639 3.19003L23.0062 8.40286C18.6527 14.9068 18.8891 23.613 22.2851 30.4916C22.8554 31.6449 23.4956 32.7632 24.2112 33.8284ZM47.9061 25.782C48.0914 25.8538 48.2763 25.9175 48.4638 25.9834C48.5457 26.0095 48.6276 26.0388 48.7101 26.064C48.9746 26.1505 49.2374 26.2508 49.5109 26.3041C61.9244 28.7937 65.2906 19.6919 66.1872 18.3524C63.2376 22.7602 58.282 23.8183 52.1998 22.2865C51.72 22.1648 51.1922 21.9847 50.7283 21.8147C50.1345 21.5949 49.5507 21.3445 48.9818 21.061C47.9011 20.5224 46.8729 19.8691 45.9178 19.121C40.4764 14.8348 37.0963 6.65853 40.6468 0L38.7254 2.74897C36.1588 6.66999 35.9071 11.5394 37.6873 15.8703C39.5655 20.4665 43.4142 24.0727 47.9061 25.782Z" fill="black"/>
</svg>
