<svg width="68" height="68" viewBox="0 0 68 68" fill="none" xmlns="http://www.w3.org/2000/svg">
<path fill-rule="evenodd" clip-rule="evenodd" d="M68 34C68 52.7777 52.7777 68 34 68C15.2223 68 0 52.7777 0 34C0 15.2223 15.2223 0 34 0C52.7777 0 68 15.2223 68 34ZM34.2897 19.4286H30.2097L25.9521 42.473H30.0321L32.4566 29.282L35.7386 29.3141C36.7833 29.3141 37.4633 29.5387 37.7786 29.988C38.0938 30.4373 38.1528 31.1967 37.9558 32.2667L36.0638 42.473H40.203L42.184 31.7854C42.5978 29.3891 42.302 27.7625 41.2968 26.9069C40.3111 26.051 38.8134 25.6018 36.8028 25.5588H33.1366L34.2897 19.4286ZM11.5141 25.5592H19.4377C21.7633 25.5803 23.4488 26.3081 24.4935 27.7415C25.5383 29.1751 25.8832 31.1327 25.5283 33.615C25.3906 34.7494 25.0849 35.8616 24.6118 36.953C24.1584 38.0442 23.5279 39.0283 22.7197 39.9057C21.7339 41.0182 20.6795 41.7242 19.556 42.0241C18.4325 42.3238 17.2694 42.4734 16.0672 42.4734H12.5193L11.3958 48.5716H7.28613L11.5141 25.5592ZM13.1993 38.8466L14.9674 29.2501H15.5646C15.7816 29.2501 16.0081 29.2392 16.2446 29.218C17.8217 29.1967 19.1321 29.3572 20.177 29.6994C21.2412 30.0416 21.596 31.3362 21.2412 33.5829C20.8079 36.2577 19.9599 37.8196 18.6986 38.2688C17.4373 38.697 15.8603 38.9 13.9681 38.8787H13.5541C13.4359 38.8787 13.3176 38.8677 13.1993 38.8466ZM46.5648 25.5592H54.4885C56.8144 25.5803 58.4995 26.3081 59.5443 27.7415C60.5893 29.1751 60.9339 31.1327 60.5791 33.615C60.4414 34.7494 60.1357 35.8616 59.6626 36.953C59.2092 38.0442 58.5787 39.0283 57.7705 39.9057C56.7847 41.0182 55.7305 41.7242 54.6068 42.0241C53.4833 42.3238 52.3203 42.4734 51.1181 42.4734H47.5702L46.4465 48.5716H42.3369L46.5648 25.5592ZM48.2502 38.8466L50.0182 29.2501H50.6154C50.8325 29.2501 51.0589 29.2392 51.2954 29.218C52.8725 29.1967 54.183 29.3572 55.2278 29.6994C56.2922 30.0416 56.647 31.3362 56.2922 33.5829C55.8587 36.2577 55.0107 37.8196 53.7495 38.2688C52.4881 38.697 50.9112 38.9 49.0189 38.8787H48.6051C48.4868 38.8787 48.3685 38.8677 48.2502 38.8466Z" fill="white"/>
</svg>
