<svg width="48" height="48" viewBox="0 0 48 48" fill="none" xmlns="http://www.w3.org/2000/svg">
<path fill-rule="evenodd" clip-rule="evenodd" d="M21.9493 19.3739L13.4424 9.9818C14.2799 8.2987 15.4085 6.7371 16.8282 5.29699C20.3094 1.76566 24.5163 0 29.4489 0C34.3816 0 38.5885 1.76566 42.0697 5.29699C45.5322 8.8093 47.2634 13.0445 47.2634 18.0024C47.2634 22.9603 45.5322 27.1954 42.0697 30.7078C38.5885 34.2391 34.3816 36.0047 29.4489 36.0047V25.6787C31.5066 25.6787 33.2662 24.9374 34.7279 23.4546C36.2083 21.9529 36.9486 20.1354 36.9486 18.0024C36.9486 15.8693 36.2083 14.0519 34.7279 12.5501C33.2662 11.0674 31.5066 10.326 29.4489 10.326C27.3913 10.326 25.6317 11.0674 24.17 12.5501C22.6895 14.0519 21.9493 15.8693 21.9493 18.0024V19.3739Z" fill="white"/>
<path fill-rule="evenodd" clip-rule="evenodd" d="M11.6338 26.7932V47.9999H12.416C17.6808 47.9999 21.9486 43.7274 21.9486 38.4569V35.6248C20.6006 35.0414 19.2122 34.1408 17.7835 32.9228C15.2379 30.7525 13.188 28.7093 11.6338 26.7932Z" fill="white"/>
<path fill-rule="evenodd" clip-rule="evenodd" d="M1.7731 10.5549L0 12.1666L14.4908 28.1425L16.7503 30.6391L16.8277 30.7176C20.3089 34.2489 24.5158 36.0146 29.4484 36.0146C34.3811 36.0146 38.588 34.2489 42.0693 30.7176C45.5317 27.2053 47.2629 22.9701 47.2629 18.0122H36.9481C36.9481 20.1453 36.2079 21.9627 34.7275 23.4644C33.2658 24.9472 31.5061 25.6886 29.4484 25.6886C27.423 25.6886 25.6863 24.9702 24.2383 23.5335L17.3163 15.8847L17.3102 15.8903L12.9606 11.0948C10.0202 7.85302 5.0113 7.61132 1.7731 10.5549Z" fill="white"/>
</svg>
