<svg width="83" height="26" viewBox="0 0 83 26" fill="none" xmlns="http://www.w3.org/2000/svg">
<path fill-rule="evenodd" clip-rule="evenodd" d="M20.3918 2.71468C20.3918 4.18718 21.5848 5.38078 23.0568 5.38078C24.5288 5.38078 25.7218 4.18718 25.7218 2.71468C25.7218 1.24228 24.5288 0.048584 23.0568 0.048584C21.5848 0.048584 20.3918 1.24228 20.3918 2.71468ZM16.6938 13.1007C17.2778 12.0489 17.5698 10.888 17.5698 9.61768C17.5698 8.24588 17.2678 7.02898 16.6628 5.96708C16.0638 4.90518 15.1598 4.07448 13.9518 3.47498C12.7488 2.87028 11.2738 2.56798 9.52683 2.56798H0.881836V25.769C3.82644 25.769 6.21383 23.3743 6.21383 20.4204V16.6141H9.52683C11.3138 16.6141 12.8098 16.2915 14.0128 15.6462C15.2208 15.0009 16.1148 14.1524 16.6938 13.1007ZM11.3928 11.6526C10.8948 12.1303 10.1358 12.369 9.11583 12.369H6.21383V6.87408H9.11583C10.1358 6.87408 10.8948 7.11288 11.3928 7.59048C11.8958 8.06808 12.1468 8.74378 12.1468 9.61768C12.1468 10.4916 11.8958 11.17 11.3928 11.6526ZM50.7518 25.0375C51.9918 25.578 53.4028 25.8482 54.9858 25.8482C56.4588 25.8482 57.7528 25.6098 58.8708 25.1328C59.9878 24.6559 60.8428 23.9988 61.4368 23.1616C62.0348 22.3243 62.3338 21.3731 62.3338 20.308C62.3128 19.0521 61.9818 18.0505 61.3408 17.3033C60.7058 16.5509 59.9638 16.0077 59.1168 15.6739C58.2698 15.3347 57.1728 14.9929 55.8278 14.6485C54.6578 14.3888 53.7948 14.1292 53.2388 13.8695C52.6878 13.6046 52.4128 13.2124 52.4128 12.6931C52.4128 12.2586 52.5848 11.9168 52.9288 11.6677C53.2778 11.4187 53.7788 11.2941 54.4298 11.2941C55.1878 11.2941 55.7988 11.4796 56.2648 11.8505C57.0598 12.4669 57.8488 13.3449 58.8528 13.3449H62.2388C62.0428 11.4796 61.2878 9.98258 59.9748 8.85388C58.6668 7.72508 56.8738 7.16078 54.5968 7.16078C53.0558 7.16078 51.7268 7.40978 50.6088 7.90798C49.4918 8.40608 48.6448 9.08438 48.0668 9.94278C47.4948 10.8013 47.2088 11.7498 47.2088 12.7885C47.2088 14.0285 47.5218 15.0115 48.1468 15.7374C48.7768 16.4634 49.5258 16.996 50.3948 17.3351C51.2628 17.669 52.3488 17.9869 53.6518 18.289C54.8648 18.5963 55.7408 18.8746 56.2808 19.1236C56.8268 19.3727 57.0988 19.7569 57.0988 20.2762C57.0988 20.7107 56.9088 21.0657 56.5268 21.3413C56.1508 21.6116 55.6168 21.7467 54.9228 21.7467C54.1598 21.7467 53.5188 21.5506 52.9998 21.1585C52.1738 20.5338 51.3348 19.6244 50.2998 19.6244H46.6218C46.7058 20.8008 47.1058 21.8606 47.8208 22.8039C48.5408 23.7471 49.5178 24.4916 50.7518 25.0375ZM25.7218 10.3445C25.7218 8.62758 24.3348 7.23578 22.6228 7.23578H20.3918V25.8482H25.7208L25.7218 10.3445ZM38.8288 24.1667L36.5678 20.5852L34.2538 24.1888C33.6408 25.1418 32.5888 25.8462 31.4588 25.8462H27.4188L33.6108 16.2853L27.4188 7.24088H31.5098C32.6478 7.24088 33.7058 7.82408 34.3158 8.78688L36.5678 12.341L38.8898 8.75848C39.5028 7.81198 40.5518 7.24088 41.6768 7.24088H45.7218L39.4358 16.5439L45.7218 25.8462H41.6378C40.4988 25.8462 39.4388 25.1323 38.8288 24.1667ZM80.1318 9.97148C78.3168 8.15548 76.1258 7.24748 73.5588 7.24748C70.9908 7.24748 68.7998 8.15548 66.9848 9.97148C65.1698 11.7875 64.2618 13.9796 64.2618 16.5479C64.2618 19.1161 65.1698 21.3082 66.9848 23.1242C68.7998 24.9402 70.9908 25.8482 73.5588 25.8482C76.1258 25.8482 78.3168 24.9402 80.1318 23.1242C81.9478 21.3082 82.8548 19.1161 82.8548 16.5479C82.8548 13.9796 81.9478 11.7875 80.1318 9.97148ZM70.6658 13.6542C71.4648 12.8552 72.4288 12.4557 73.5588 12.4557C74.6878 12.4557 75.6518 12.8552 76.4508 13.6542C77.2498 14.4533 77.6488 15.4178 77.6488 16.5479C77.6488 17.6779 77.2498 18.6424 76.4508 19.4414C75.6518 20.2405 74.6878 20.64 73.5588 20.64C72.4288 20.64 71.4648 20.2405 70.6658 19.4414C69.8668 18.6424 69.4678 17.6779 69.4678 16.5479C69.4678 15.4178 69.8668 14.4533 70.6658 13.6542Z" fill="white"/>
</svg>
