<svg width="68" height="68" viewBox="0 0 68 68" fill="none" xmlns="http://www.w3.org/2000/svg">
<path fill-rule="evenodd" clip-rule="evenodd" d="M68 0H0V68H68V0ZM9.79285 44.9521C10.3529 45.4321 11.1529 45.6721 12.1929 45.6721C13.2929 45.6721 14.2429 45.3321 15.0429 44.6521C16.3829 44.6121 17.5029 44.3721 18.4029 43.9321C19.1266 43.5702 19.875 42.967 20.6482 42.1225C20.7232 42.2903 20.8023 42.4535 20.8856 42.6121C21.7456 44.2121 23.0556 45.0121 24.8156 45.0121C26.0956 45.0121 27.2356 44.6721 28.2356 43.9921C28.7276 43.664 29.2011 43.2918 29.6559 42.8753C29.7656 43.1468 29.8939 43.3991 30.0407 43.6321C30.6407 44.5521 31.5907 45.0121 32.8907 45.0121C34.2494 45.0121 35.6891 44.2571 37.2099 42.7472C37.3649 42.9627 37.5361 43.1676 37.7236 43.3621C38.8236 44.4621 40.3536 45.0121 42.3136 45.0121C43.5336 45.0121 44.7936 44.7021 46.0936 44.0821C46.8058 43.7367 47.4628 43.3157 48.0644 42.8189C48.1733 43.4788 48.338 43.9898 48.5585 44.3521C48.8585 44.7921 49.3185 45.0121 49.9385 45.0121C50.5585 45.0121 51.0085 44.8521 51.2885 44.5321C51.5885 44.1921 51.8485 43.5521 52.0685 42.6121C52.3885 41.3121 52.8285 40.0521 53.3885 38.8321C53.9485 37.5921 54.5485 36.5821 55.1885 35.8021C55.8485 35.0221 56.4485 34.6321 56.9885 34.6321C57.2085 34.6321 57.3885 34.7221 57.5285 34.9021C57.6885 35.0821 57.7685 35.3521 57.7685 35.7121C57.7685 36.3321 57.5785 36.8621 57.1985 37.3021C56.8185 37.7221 56.1885 38.1221 55.3085 38.5021C54.5085 38.8421 54.1085 39.4021 54.1085 40.1821C54.1085 41.6221 54.5585 42.7921 55.4585 43.6921C56.3785 44.5721 57.5585 45.0121 58.9985 45.0121C59.8385 45.0121 60.4785 44.8221 60.9185 44.4421C61.3785 44.0421 61.6085 43.5921 61.6085 43.0921C61.6085 42.3521 61.1985 41.9021 60.3785 41.7421C59.5585 41.5821 58.9585 41.3921 58.5785 41.1721C58.2185 40.9321 57.9785 40.5121 57.8585 39.9121C59.2185 39.1921 60.1785 38.3721 60.7385 37.4521C61.2985 36.5321 61.5785 35.5221 61.5785 34.4221C61.5785 33.4221 61.2685 32.5821 60.6485 31.9021C60.0485 31.2221 59.2485 30.8821 58.2485 30.8821C57.1685 30.8821 56.0085 31.4521 54.7685 32.5921C53.5285 33.7121 52.4285 35.5221 51.4685 38.0221C51.4685 36.9221 51.4985 35.8521 51.5585 34.8121C54.2185 31.9121 56.1385 29.3821 57.3185 27.2221C58.4985 25.0421 59.0885 22.9421 59.0885 20.9221C59.0885 19.6621 58.7985 18.6421 58.2185 17.8621C57.6585 17.0621 56.9185 16.6621 55.9985 16.6621C54.2785 16.6621 52.7985 17.8021 51.5585 20.0821C50.3385 22.3421 49.4085 25.1421 48.7685 28.4821C48.1485 31.8221 47.8385 35.0321 47.8385 38.1121C47.8385 38.5029 47.8408 38.8734 47.8454 39.2237C47.1042 40.0154 46.3503 40.6348 45.5836 41.0821C44.6436 41.6221 43.7636 41.8921 42.9436 41.8921C40.9236 41.8921 39.9136 40.7321 39.9136 38.4121C39.9136 37.5721 40.0336 36.8021 40.2736 36.1021C40.5136 35.4021 40.8336 34.8521 41.2336 34.4521C41.6336 34.0321 42.0636 33.8221 42.5236 33.8221C42.7636 33.8221 42.9436 33.8921 43.0636 34.0321C43.2036 34.1721 43.2736 34.3721 43.2736 34.6321C43.2736 34.8921 43.2236 35.1721 43.1236 35.4721C43.1036 35.5521 43.0736 35.6821 43.0336 35.8621C42.9936 36.0421 42.9736 36.2021 42.9736 36.3421C42.9736 36.6621 43.0836 36.9121 43.3036 37.0921C43.5436 37.2721 43.8536 37.3621 44.2336 37.3621C44.8336 37.3621 45.3136 37.0721 45.6736 36.4921C46.0536 35.9121 46.2436 35.2021 46.2436 34.3621C46.2436 33.3421 45.9336 32.5121 45.3136 31.8721C44.7136 31.2121 43.8636 30.8821 42.7636 30.8821C41.6436 30.8821 40.5736 31.2121 39.5536 31.8721C38.5336 32.5321 37.7036 33.4721 37.0636 34.6921C36.4236 35.9121 36.1036 37.3321 36.1036 38.9521C36.1036 39.3058 36.124 39.6464 36.1648 39.9737C35.7968 40.3782 35.4755 40.7077 35.2007 40.9621C34.6607 41.4621 34.2107 41.7121 33.8507 41.7121C33.4707 41.7121 33.2007 41.5521 33.0407 41.2321C32.8807 40.9121 32.8007 40.4521 32.8007 39.8521C32.8007 39.0721 33.0407 37.5821 33.5207 35.3821C33.9007 33.5621 34.0907 32.4021 34.0907 31.9021C34.0907 31.2221 33.5807 30.8821 32.5607 30.8821C31.9007 30.8821 31.4207 31.0021 31.1207 31.2421C30.8207 31.4821 30.5807 31.9221 30.4007 32.5621C30.0407 33.7821 29.7407 35.1021 29.5007 36.5221C29.3172 37.6903 29.2102 38.6844 29.1798 39.5044C28.5697 40.176 28.0449 40.6819 27.6056 41.0221C26.9856 41.4821 26.2656 41.7121 25.4456 41.7121C24.9256 41.7121 24.5056 41.5421 24.1856 41.2021C23.8656 40.8421 23.6356 40.2521 23.4956 39.4321C25.7556 36.3521 27.5456 33.2421 28.8656 30.1021C30.1856 26.9621 30.8456 24.2021 30.8456 21.8221C30.8456 20.1621 30.5656 18.8921 30.0056 18.0121C29.4656 17.1121 28.7156 16.6621 27.7556 16.6621C26.0556 16.6621 24.5856 17.7821 23.3456 20.0221C22.1256 22.2621 21.1956 24.9421 20.5556 28.0621C19.9356 31.1821 19.6256 33.9621 19.6256 36.4021C19.6256 37.3594 19.6853 38.25 19.8046 39.0738C18.6502 40.4314 17.633 41.2808 16.7529 41.6221C16.7929 41.2621 16.8129 40.9821 16.8129 40.7821C16.8129 40.0821 16.6429 39.4421 16.3029 38.8621C15.9829 38.2621 15.5029 37.5421 14.8629 36.7021C14.4229 36.1621 14.0929 35.7121 13.8729 35.3521C13.6729 34.9921 13.5729 34.6621 13.5729 34.3621C13.5729 33.8621 13.7529 33.2521 14.1129 32.5321C14.2529 32.2721 14.3629 32.0121 14.4429 31.7521C14.5229 31.4921 14.5629 31.3021 14.5629 31.1821C14.5629 30.9621 14.4529 30.8021 14.2329 30.7021C14.0129 30.6021 13.6229 30.5521 13.0629 30.5521C11.8629 30.5521 11.0729 30.9921 10.6929 31.8721C10.2529 32.9121 9.80285 33.9221 9.34285 34.9021C8.88285 35.8621 8.48285 36.6321 8.14285 37.2121C7.58285 38.0921 6.75285 39.2121 5.65285 40.5721L5.26285 41.0521C4.98285 41.3921 4.84285 41.7621 4.84285 42.1621C4.84285 42.5021 4.94285 42.7921 5.14285 43.0321C5.34285 43.2521 5.60285 43.3621 5.92285 43.3621C6.32285 43.3621 6.70285 43.1821 7.06285 42.8221C7.78285 42.1221 8.44285 41.3821 9.04285 40.6021C9.66285 39.8221 10.2829 38.8421 10.9029 37.6621C11.1829 37.9821 11.4829 38.3621 11.8029 38.8021C12.1229 39.2221 12.3829 39.6621 12.5829 40.1221C12.8029 40.5821 12.9229 41.0721 12.9429 41.5921L12.1329 41.5021C11.7929 41.4421 11.4929 41.4121 11.2329 41.4121C10.4929 41.4121 9.93285 41.6021 9.55285 41.9821C9.17285 42.3621 8.98285 42.8121 8.98285 43.3321C8.98285 43.9321 9.25285 44.4721 9.79285 44.9521ZM25.5356 22.1221C26.1156 20.4621 26.6356 19.6321 27.0956 19.6321C27.6556 19.6321 27.9356 20.3921 27.9356 21.9121C27.9356 23.8521 27.5156 26.0021 26.6756 28.3621C25.8356 30.7021 24.7056 33.0421 23.2856 35.3821C23.3256 33.1221 23.5656 30.7621 24.0056 28.3021C24.4456 25.8421 24.9556 23.7821 25.5356 22.1221ZM31.2407 28.3321C31.6607 28.7121 32.2907 28.9021 33.1307 28.9021C33.9907 28.9021 34.6807 28.6721 35.2007 28.2121C35.7207 27.7321 35.9807 27.0921 35.9807 26.2921C35.9807 25.6321 35.7507 25.1221 35.2907 24.7621C34.8307 24.4021 34.2307 24.2221 33.4907 24.2221C32.6707 24.2221 31.9807 24.4621 31.4207 24.9421C30.8807 25.4021 30.6107 25.9821 30.6107 26.6821C30.6107 27.3821 30.8207 27.9321 31.2407 28.3321ZM52.8785 25.3621C53.2985 23.6021 53.7285 22.2121 54.1685 21.1921C54.6085 20.1521 55.0085 19.6321 55.3685 19.6321C55.6285 19.6321 55.8285 19.8021 55.9685 20.1421C56.1085 20.4821 56.1785 20.9721 56.1785 21.6121C56.1785 23.0121 55.7685 24.5721 54.9485 26.2921C54.1485 28.0121 53.1285 29.6021 51.8885 31.0621C52.1485 29.0021 52.4785 27.1021 52.8785 25.3621Z" fill="white"/>
</svg>
