<svg width="68" height="68" viewBox="0 0 68 68" fill="none" xmlns="http://www.w3.org/2000/svg">
<g clip-path="url(#clip0_109_23)">
<path d="M51.6179 5.4537C61.2387 11.3965 67.6496 22.0379 67.6496 34.1766C67.6496 52.8087 52.5453 67.9131 33.9132 67.9131C29.8501 67.9131 25.9547 67.1948 22.3482 65.8772L21.9629 65.7337L22.5904 65.5322L23.3969 65.2677L23.7948 65.1348L24.1891 65.0014L24.9671 64.7334L25.7309 64.4636L26.4804 64.1921L27.2157 63.9187L27.578 63.7814L28.2919 63.5053C29.0459 63.2099 29.7755 62.9113 30.4809 62.6095L31.0054 62.3825L31.6482 62.0971C31.9308 61.9698 32.2091 61.8419 32.4832 61.7135L32.8912 61.5204L33.4914 61.2292L33.7862 61.0828L34.0774 60.936L34.6492 60.6407C39.449 58.123 42.7101 55.3879 44.4415 52.389C48.11 46.0351 44.9061 39.245 35.7089 32.3227L34.9604 31.7616L34.5058 31.4129L34.0643 31.0669L33.6361 30.7235L33.221 30.3828L33.0184 30.2134L32.819 30.0446L32.4301 29.7091L32.1469 29.4592L31.8711 29.2107L31.5145 28.8816L31.1709 28.5551L30.8402 28.2311L30.6796 28.0701L30.5222 27.9097L30.217 27.5908C26.5813 23.7259 25.7695 20.4172 27.42 17.5584C28.2601 16.1033 29.7166 14.6727 31.7869 13.2795L32.0382 13.1125L32.4341 12.8578C32.6131 12.7448 32.7962 12.632 32.9833 12.5195L33.2671 12.351L33.7043 12.0989L34.1553 11.8477L34.5025 11.66L34.8575 11.4728L35.3428 11.224C35.712 11.0378 36.0928 10.8524 36.4852 10.6679L36.8814 10.4837L37.4217 10.2389L37.6971 10.117L38.258 9.87381L38.5437 9.75264L39.1252 9.51111L39.4212 9.39076L40.0233 9.1509L40.3295 9.03139L40.9523 8.79323L41.5887 8.55623L41.9121 8.43816L42.5692 8.20293L43.2399 7.9689L43.9244 7.73608L44.2717 7.62014L44.9767 7.38919L45.6954 7.1595L46.4278 6.93109L47.1739 6.70398L47.9337 6.47819L48.9027 6.19783L49.8931 5.91958L51.1097 5.58853L51.6179 5.4537ZM33.9132 0.440186C38.0159 0.440186 41.9475 1.17252 45.5845 2.5136L45.973 2.65961L45.7267 2.73419L44.525 3.10459L44.1316 3.22902L43.3553 3.47932L42.5931 3.73157L41.8451 3.98579L41.1112 4.24199L40.3915 4.5002L40.0369 4.63006L39.166 4.95694L38.3171 5.28701L37.6539 5.55341L37.3276 5.68739L36.6856 5.95692C30.1244 8.75304 25.8243 11.8882 23.768 15.4499C20.179 21.6662 23.4343 28.3674 32.6324 35.2879L33.3808 35.8491L33.8353 36.198L34.2765 36.5444L34.4921 36.7166L34.9134 37.0593L35.2207 37.3147L35.5206 37.5687L35.909 37.9053L36.0982 38.0726L36.4669 38.4055C36.6681 38.5898 36.8633 38.773 37.0525 38.955L37.3318 39.2273L37.7338 39.6326L38.1158 40.0343C41.736 43.9261 42.5097 47.3009 40.7895 50.2805C39.6763 52.2085 37.5511 54.1064 34.4187 55.9489L34.1311 56.1162L33.6651 56.3802L33.1852 56.6434C32.9147 56.7895 32.6378 56.9351 32.3545 57.0803L31.9247 57.2979L31.3963 57.5582L30.854 57.8176L30.2978 58.0762L30.0145 58.2051L29.4376 58.4623L28.8468 58.7186L28.2422 58.9739L27.9347 59.1012L27.3093 59.3551L26.9914 59.4817L26.6701 59.608L26.017 59.8599L25.3502 60.1108L24.6694 60.3607L23.9749 60.6094L23.2666 60.8572L22.9072 60.9806L22.1781 61.2267L21.8084 61.3493L21.0586 61.5938L20.295 61.837L19.3211 62.1395L18.3256 62.4402L17.5137 62.6793L16.3806 63.0052C6.66428 57.0834 0.176758 46.3876 0.176758 34.1766C0.176758 15.5445 15.2811 0.440186 33.9132 0.440186Z" fill="#0080FF"/>
</g>
<defs>
<clipPath id="clip0_109_23">
<rect width="68" height="68" fill="white"/>
</clipPath>
</defs>
</svg>
